<svg version="1.1" id="Layer_1" xmlns="http://www.w3.org/2000/svg" xmlns:xlink="http://www.w3.org/1999/xlink" x="0px" y="0px"
	 width="100%" viewBox="0 0 612 612" enable-background="new 0 0 612 612" xml:space="preserve">
<path fill="#FFFFFF" opacity="1.000000" stroke="none" 
	d="
M50.245998,612.684082 
	C35.003395,613.000000 20.004686,612.866150 5.011776,613.101562 
	C1.602690,613.155029 0.899729,612.457581 0.903330,609.011841 
	C1.020498,496.870728 1.000000,384.729401 1.000000,272.588135 
	C1.000000,183.608276 1.020855,94.628380 0.922127,5.648625 
	C0.918264,2.166822 1.272477,0.883759 5.349498,0.886387 
	C206.470566,1.016052 407.591736,1.010731 608.712830,0.911824 
	C612.214600,0.910102 613.106628,1.500873 613.104431,5.211015 
	C612.986511,206.332092 612.985718,407.453247 613.104736,608.574341 
	C613.107056,612.490295 612.048645,613.150269 608.426147,613.093628 
	C593.932922,612.866943 579.434082,613.000000 564.468628,613.000000 
	C561.872864,609.575867 561.924194,605.586182 561.836853,601.883972 
	C561.455200,585.707947 559.752502,569.661926 557.573669,553.665283 
	C555.634033,539.424011 552.240540,525.526001 546.591064,512.236694 
	C538.528198,493.270416 524.258606,481.201416 505.133453,474.255646 
	C489.901550,468.723785 474.158203,465.075775 458.515289,461.044312 
	C439.144165,456.051971 419.985321,450.363251 401.081360,443.819000 
	C380.529449,436.704254 367.947357,421.599915 366.710876,402.663971 
	C365.916504,390.498016 367.941284,378.755554 371.850311,367.286926 
	C374.327789,360.018158 377.529449,353.113678 381.323792,346.394836 
	C388.358185,333.938629 391.871155,320.178711 395.029602,306.337006 
	C396.274994,300.879272 396.364502,300.835449 401.654938,302.041748 
	C405.330170,302.879822 408.015198,301.200104 409.769836,298.429626 
	C418.519867,284.613739 423.931335,269.798248 422.592224,253.094559 
	C422.294769,249.384308 420.424805,248.315018 416.851105,248.971497 
	C411.055878,250.036041 409.916626,248.708572 411.820038,242.906998 
	C416.557007,228.468704 420.321747,213.872299 421.950989,198.678741 
	C423.718750,182.193359 422.546906,166.015610 418.001862,150.191986 
	C407.139038,112.372948 383.579071,85.088104 346.868073,71.117569 
	C307.216675,56.028057 269.712402,62.169754 236.473984,88.895813 
	C203.198349,115.651810 189.513687,151.372620 191.500610,193.415115 
	C192.210724,208.440689 195.676224,223.080429 200.389404,237.385757 
	C201.431946,240.550110 202.700073,243.652252 203.405792,246.912674 
	C204.038422,249.835327 202.972626,251.141510 199.900085,250.021637 
	C199.274475,249.793625 198.692917,249.446915 198.060715,249.239517 
	C193.651810,247.793137 191.746506,249.021744 191.391296,253.601547 
	C190.603455,263.759491 192.311615,273.550476 196.093246,282.954956 
	C197.956528,287.588715 200.327621,292.018005 202.695908,296.413361 
	C205.324951,301.292664 208.201584,302.684998 213.748291,301.649384 
	C217.610535,300.928253 218.432571,303.305664 219.023407,306.013031 
	C220.337982,312.036743 221.714493,318.026794 223.485245,323.949341 
	C226.320572,333.432526 230.375885,342.342102 235.086105,350.998291 
	C243.036102,365.608337 247.371750,381.182495 247.333069,397.868958 
	C247.275375,422.749115 233.980988,435.330780 215.948135,442.488190 
	C191.583817,452.158600 166.085342,458.208496 140.761322,464.768799 
	C124.971313,468.859253 109.079201,472.627441 94.736427,480.978088 
	C81.338676,488.778534 72.272934,500.075043 66.574265,514.271667 
	C59.047203,533.023254 56.231274,552.731506 54.171234,572.697388 
	C52.807709,585.912659 53.245045,599.292297 50.245998,612.684082 
z"/>
<path fill="#A6A6A6" opacity="1.000000" stroke="none" 
	d="
M50.468658,613.000000 
	C51.525955,586.128906 52.589348,559.181580 59.143421,532.913391 
	C62.699642,518.660339 67.584976,504.971771 77.489342,493.488220 
	C85.349503,484.374817 95.079796,478.292969 106.013809,473.967712 
	C127.423660,465.498444 150.101395,461.393951 172.166687,455.175262 
	C186.580536,451.113037 200.966064,446.944183 214.920502,441.517090 
	C239.709015,431.876465 248.483383,413.808716 245.634445,388.558350 
	C243.934952,373.495575 238.722672,359.595459 231.197556,346.396729 
	C224.388794,334.454468 220.792252,321.250671 218.005234,307.845520 
	C217.605927,305.924988 217.101227,304.026367 216.640579,302.097687 
	C208.172607,305.217102 204.240692,303.290375 200.410110,295.024139 
	C196.424484,286.423340 192.065231,278.034851 190.607956,268.465454 
	C189.873413,263.642090 189.835587,258.838806 189.881866,254.029831 
	C189.948410,247.118393 193.367661,245.244858 199.640686,248.401230 
	C200.482254,248.824692 201.311630,249.272400 202.818375,250.059998 
	C200.089432,240.813843 197.298019,232.356735 195.104218,223.747360 
	C186.284515,189.135452 187.530777,155.297440 205.406952,123.611710 
	C225.008698,88.867378 254.505569,67.562958 294.609650,63.016758 
	C344.993011,57.305298 393.029602,86.033775 413.420654,133.021744 
	C426.954865,164.209290 426.637939,195.973694 417.786102,228.139740 
	C416.243439,233.745682 414.327728,239.248886 412.590515,244.801483 
	C412.206238,246.029648 411.208984,247.397125 412.394775,248.505402 
	C413.436737,249.479202 414.558350,248.236710 415.589752,247.913162 
	C421.858490,245.946442 423.750885,247.359436 424.182739,253.838608 
	C425.271484,270.173523 419.491180,284.592590 411.769653,298.399994 
	C408.493256,304.258789 403.995209,305.025604 397.385834,301.702087 
	C393.550690,319.800629 388.210175,337.170837 379.058777,353.567230 
	C370.722717,368.502930 366.873810,385.161957 368.007355,402.605347 
	C369.227142,421.376251 382.734039,436.140076 402.856110,443.112793 
	C432.929565,453.533936 463.822479,460.934418 494.492554,469.107605 
	C527.892090,478.008118 547.461548,499.185303 554.885742,532.482483 
	C558.618652,549.224487 560.941101,566.140137 562.066223,583.237610 
	C562.699402,592.859558 563.318481,602.482422 563.971924,612.552429 
	C392.979095,613.000000 221.958206,613.000000 50.468658,613.000000 
z"/>
</svg>