<?xml version="1.0" standalone="no"?>
<!DOCTYPE svg PUBLIC "-//W3C//DTD SVG 20010904//EN"
 "http://www.w3.org/TR/2001/REC-SVG-20010904/DTD/svg10.dtd">
<svg version="1.0" xmlns="http://www.w3.org/2000/svg"
 width="245.000000pt" height="244.000000pt" viewBox="0 0 245.000000 244.000000"
 preserveAspectRatio="xMidYMid meet">

<g transform="translate(0.000000,244.000000) scale(0.100000,-0.100000)"
fill="#000000" stroke="none">
<path d="M0 1220 l0 -1220 1225 0 1225 0 0 1220 0 1220 -1225 0 -1225 0 0
-1220z m370 1045 c0 -21 -5 -25 -30 -25 l-30 0 0 -105 0 -105 -30 0 -30 0 0
105 0 105 -30 0 c-25 0 -30 4 -30 25 0 25 1 25 90 25 89 0 90 0 90 -25z m158
-74 c3 -101 11 -121 48 -121 34 0 44 28 44 129 l0 91 30 0 30 0 0 -85 c0 -95
-15 -143 -51 -169 -46 -32 -131 -9 -149 40 -6 14 -10 68 -10 120 l0 95 28 -3
27 -3 3 -94z m432 74 c0 -22 -4 -25 -35 -25 l-35 0 0 -109 0 -108 -25 5 c-25
4 -25 5 -25 108 l0 104 -35 0 c-31 0 -35 3 -35 25 0 25 0 25 95 25 95 0 95 0
95 -25z m306 -8 c68 -62 54 -167 -28 -217 -86 -52 -198 11 -198 113 0 81 58
137 143 137 40 0 53 -5 83 -33z m298 12 c33 -26 36 -79 6 -109 l-20 -20 25
-50 c14 -27 25 -51 25 -54 0 -2 -12 -6 -26 -9 -23 -4 -28 1 -52 49 -34 69 -52
71 -52 4 0 -49 -1 -50 -30 -50 l-30 0 0 123 c0 68 3 127 7 130 3 4 32 7 63 7
43 0 64 -5 84 -21z m366 -109 l0 -130 -30 0 -30 0 0 130 0 130 30 0 30 0 0
-130z m329 104 c87 -73 48 -219 -64 -240 -50 -9 -83 2 -123 42 -33 33 -34 37
-30 96 4 55 8 64 41 94 32 30 43 34 91 34 44 0 60 -5 85 -26z m-509 -209 c0
-21 -5 -25 -27 -25 -23 0 -28 5 -29 25 -2 21 2 25 27 25 24 0 29 -4 29 -25z
m-815 -287 c-70 -77 -140 -215 -161 -318 -33 -155 0 -348 83 -488 47 -79 152
-186 226 -231 246 -146 545 -129 773 45 46 35 84 62 84 59 0 -3 -10 -25 -21
-48 -37 -73 -106 -163 -174 -224 l-65 -60 52 -8 c41 -6 49 -9 33 -15 -11 -5
-45 -9 -75 -10 -62 -2 -167 -17 -132 -19 12 0 39 -8 59 -16 47 -20 34 -34 -44
-51 -32 -7 -49 -13 -38 -13 54 -3 187 -21 197 -28 8 -4 2 -11 -16 -18 -24 -10
-9 -13 105 -18 139 -7 202 -18 181 -31 -25 -15 -251 -26 -567 -26 -330 1 -530
11 -548 29 -10 10 -1 12 108 27 l50 7 -44 8 c-50 10 -61 16 -37 24 49 15 48
19 -10 26 -34 4 -80 12 -103 19 -61 16 -53 35 24 56 37 10 29 11 -85 18 -69 4
-136 10 -150 13 l-25 6 30 9 c17 4 116 11 220 15 205 7 206 14 5 32 l-115 11
-68 71 c-75 79 -145 207 -174 319 -21 82 -23 273 -4 350 56 222 198 401 398
501 43 21 79 39 81 39 2 0 -22 -28 -53 -62z m600 -1575 c19 -12 18 -12 -7 -13
-50 0 -29 -19 25 -23 28 -2 4 -4 -55 -5 -102 -2 -146 -16 -75 -25 17 -2 -71
-4 -198 -4 -126 0 -215 2 -197 4 17 2 32 8 32 14 0 5 -53 10 -117 11 -98 2
-104 3 -38 5 44 2 84 8 89 13 7 7 0 10 -19 10 -42 0 -22 13 33 21 79 12 504 5
527 -8z"/>
<path d="M1153 2242 c-55 -8 -73 -103 -28 -147 30 -30 64 -32 99 -4 20 16 26
29 26 60 0 22 -4 49 -10 59 -11 21 -55 37 -87 32z"/>
<path d="M1470 2210 c0 -35 3 -40 23 -40 45 0 65 50 28 70 -38 20 -51 13 -51
-30z"/>
<path d="M2113 2214 c-27 -41 -22 -92 11 -120 35 -31 70 -30 101 1 31 30 33
82 4 119 -29 37 -91 37 -116 0z"/>
</g>
</svg>
