<?xml version="1.0" standalone="no"?>
<!DOCTYPE svg PUBLIC "-//W3C//DTD SVG 20010904//EN"
 "http://www.w3.org/TR/2001/REC-SVG-20010904/DTD/svg10.dtd">
<svg version="1.0" xmlns="http://www.w3.org/2000/svg"
 width="456.000000pt" height="456.000000pt" viewBox="0 0 456.000000 456.000000"
 preserveAspectRatio="xMidYMid meet">

<g transform="translate(0.000000,456.000000) scale(0.100000,-0.100000)"
fill="#000000" stroke="none">
<path d="M906 4537 c-69 -39 -80 -64 -86 -190 l-5 -112 -145 -6 c-160 -7 -214
-20 -325 -77 -89 -46 -216 -171 -263 -259 -18 -35 -44 -106 -58 -159 l-24 -97
0 -1516 c0 -1479 1 -1518 20 -1599 48 -201 171 -358 345 -442 155 -75 39 -71
1950 -68 1637 3 1712 4 1765 22 221 75 362 211 437 421 l28 80 3 1555 c3 1727
6 1630 -63 1775 -66 137 -175 243 -314 307 -90 42 -177 58 -313 58 l-118 0 0
97 c0 121 -20 171 -84 208 -53 31 -99 31 -150 2 -69 -39 -80 -64 -86 -190 l-5
-112 -1136 -3 -1137 -2 -3 107 c-5 125 -22 164 -87 201 -50 28 -96 28 -146 -1z
m3126 -654 c66 -30 133 -96 165 -162 23 -49 27 -71 31 -178 l4 -123 -1951 0
-1951 0 0 114 c0 127 11 172 61 241 39 54 92 92 162 116 49 18 136 18 1742 16
l1690 -2 47 -22z m198 -2020 c0 -1355 2 -1298 -59 -1388 -35 -52 -113 -110
-170 -127 -38 -11 -355 -13 -1736 -13 l-1690 0 -55 26 c-68 32 -122 84 -158
152 l-27 52 -3 1268 -2 1267 1950 0 1950 0 0 -1237z"/>
<path d="M2585 2746 c-96 -44 -153 -140 -142 -242 20 -190 232 -283 388 -169
117 85 128 267 22 367 -71 68 -179 86 -268 44z"/>
<path d="M3394 2746 c-99 -46 -158 -159 -136 -263 39 -186 256 -260 401 -137
44 37 81 116 81 174 0 78 -18 121 -73 175 -81 78 -176 96 -273 51z"/>
<path d="M1000 1951 c-159 -52 -230 -212 -155 -350 33 -60 72 -94 134 -116 91
-32 174 -12 247 59 70 68 91 150 64 247 -13 47 -72 115 -122 140 -45 23 -129
33 -168 20z"/>
<path d="M1810 1951 c-72 -22 -139 -81 -166 -147 -19 -44 -18 -136 2 -182 32
-78 115 -138 204 -149 139 -16 264 101 263 246 -1 72 -27 125 -87 178 -64 56
-143 76 -216 54z"/>
<path d="M2608 1946 c-55 -20 -85 -42 -118 -88 -90 -123 -50 -289 85 -361 30
-16 58 -21 111 -22 61 0 77 4 119 30 62 38 102 95 117 165 37 178 -144 337
-314 276z"/>
<path d="M3418 1946 c-85 -33 -141 -99 -160 -189 -40 -191 173 -349 349 -258
175 90 175 343 0 432 -51 27 -140 33 -189 15z"/>
<path d="M982 1131 c-210 -74 -223 -364 -20 -451 190 -82 385 93 328 295 -35
126 -183 201 -308 156z"/>
<path d="M1807 1136 c-65 -18 -116 -61 -150 -127 -58 -111 -20 -247 87 -313
121 -75 286 -27 346 101 63 134 -9 295 -151 337 -62 19 -69 19 -132 2z"/>
<path d="M2639 1143 c-15 -2 -51 -18 -80 -36 -95 -57 -139 -167 -108 -274 17
-62 97 -147 154 -162 153 -42 297 47 321 197 20 128 -84 261 -216 275 -25 3
-57 3 -71 0z"/>
</g>
</svg>
