<svg version="1.1" id="Layer_1" xmlns="http://www.w3.org/2000/svg" xmlns:xlink="http://www.w3.org/1999/xlink" x="0px" y="0px"
	 width="100%" viewBox="0 0 375 458" enable-background="new 0 0 375 458" xml:space="preserve">
<path fill="#010101" opacity="1.000000" stroke="none" 
	d="
M26.000000,459.000000 
	C23.958334,459.000000 21.916666,459.000000 19.343975,458.658508 
	C14.753817,455.867371 10.301818,453.872101 6.767193,450.815857 
	C4.213295,448.607574 2.878505,444.989380 0.999995,442.000000 
	C1.000000,336.311310 1.000000,230.622650 1.359581,124.365097 
	C2.049890,123.046005 2.532141,122.326080 2.688998,121.541122 
	C5.893642,105.503998 14.286965,92.801582 27.311792,83.050713 
	C35.836205,76.669022 45.518486,73.040176 56.255589,71.226433 
	C56.255589,69.185715 56.226719,67.377121 56.260036,65.569672 
	C56.608582,46.662392 63.566616,30.662474 77.619560,17.955591 
	C88.750595,7.890749 102.212875,3.246061 117.415009,1.930360 
	C181.447937,2.008694 245.015579,2.004542 308.583221,1.989751 
	C310.407806,1.989327 312.232422,1.876001 314.466125,1.888552 
	C316.184998,2.170622 317.490356,2.413441 318.805115,2.583294 
	C346.834320,6.204369 367.229980,24.457840 373.736786,51.715904 
	C374.401093,54.498779 375.241394,57.239643 376.000000,60.000000 
	C376.000000,60.444447 376.000000,60.888889 375.628723,61.887012 
	C375.173004,63.263786 375.014648,64.086876 375.014557,64.909981 
	C375.003082,169.925446 374.999512,274.940918 375.044189,379.956360 
	C375.044739,381.304382 375.667603,382.652130 376.000000,384.000000 
	C376.000000,384.000000 376.000000,384.500000 375.654236,384.839417 
	C374.918335,386.088043 374.465607,386.975952 374.147705,387.909698 
	C370.659454,398.156006 362.585266,403.652924 351.861359,403.297577 
	C344.498932,403.053619 339.308014,398.707214 333.996246,394.423157 
	C325.150177,387.288666 316.243683,380.229126 306.344299,372.324951 
	C306.344299,375.261902 306.344269,377.027008 306.344269,378.792084 
	C306.344147,397.923737 306.347229,417.055359 306.342407,436.187012 
	C306.340271,444.687317 302.791077,451.241058 295.353210,455.426025 
	C292.729187,456.902466 289.793427,457.824707 287.000000,459.000000 
	C284.958344,459.000000 282.916656,459.000000 280.336487,458.656860 
	C275.814514,455.987305 271.503174,454.076630 267.915863,451.247803 
	C260.491119,445.392853 253.484222,439.010651 246.247864,432.913696 
	C216.931091,408.212830 187.564743,383.570709 158.301758,358.806396 
	C155.129501,356.121826 152.950043,355.757446 149.581573,358.792236 
	C140.456741,367.013184 130.954773,374.817535 121.556267,382.732361 
	C100.985542,400.055664 80.591705,417.598206 59.713707,434.543701 
	C48.948647,443.281128 39.919010,454.564697 26.000000,459.000000 
M55.088444,380.554657 
	C64.897858,372.353943 74.717705,364.165680 84.514442,355.949829 
	C103.091049,340.370911 121.577095,324.682739 140.259399,309.231781 
	C148.284378,302.594788 159.882401,302.687012 167.839157,309.334900 
	C191.142807,328.805176 214.314835,348.432922 237.552261,367.982544 
	C245.486877,374.657990 253.462616,381.284515 262.457092,388.800323 
	C262.457092,385.649078 262.457092,383.738647 262.457092,381.828217 
	C262.457092,338.338165 262.457092,294.848114 262.457092,251.358078 
	C262.457092,213.033524 262.475983,174.708954 262.446808,136.384430 
	C262.436584,122.930191 254.769669,115.054825 241.700195,115.050636 
	C183.046967,115.031822 124.393723,115.029930 65.740501,115.052643 
	C53.451603,115.057404 45.375874,123.004082 45.369965,135.279297 
	C45.330124,218.093628 45.347069,300.908020 45.368023,383.722382 
	C45.368359,385.044861 45.651661,386.367310 45.885906,388.415375 
	C49.277134,385.531006 51.920120,383.283051 55.088444,380.554657 
M167.499924,70.838234 
	C192.498245,70.838234 217.496582,70.830780 242.494888,70.849121 
	C245.157913,70.851074 247.850601,70.776611 250.479263,71.121124 
	C283.835968,75.492981 306.851349,103.385292 306.502411,135.915726 
	C305.905457,191.572723 306.579773,247.242859 306.097473,302.902100 
	C306.017822,312.092102 307.899750,318.628906 315.892303,323.506317 
	C320.981262,326.611908 325.425293,330.774231 330.964996,335.091156 
	C330.964996,332.457001 330.964996,331.153748 330.964996,329.850494 
	C330.964966,242.355621 330.971954,154.860733 330.957489,67.365860 
	C330.955261,53.845016 323.159393,46.163502 309.552368,46.162926 
	C247.056030,46.160294 184.559677,46.161686 122.063339,46.162399 
	C120.896820,46.162415 119.729019,46.138016 118.563980,46.182190 
	C107.345955,46.607529 97.359505,59.054073 101.187782,70.838234 
	C122.883095,70.838234 144.691498,70.838234 167.499924,70.838234 
z"/>
<path fill="#FEFEFE" opacity="1.000000" stroke="none" 
	d="
M26.468658,459.000000 
	C39.919010,454.564697 48.948647,443.281128 59.713707,434.543701 
	C80.591705,417.598206 100.985542,400.055664 121.556267,382.732361 
	C130.954773,374.817535 140.456741,367.013184 149.581573,358.792236 
	C152.950043,355.757446 155.129501,356.121826 158.301758,358.806396 
	C187.564743,383.570709 216.931091,408.212830 246.247864,432.913696 
	C253.484222,439.010651 260.491119,445.392853 267.915863,451.247803 
	C271.503174,454.076630 275.814514,455.987305 279.898987,458.656860 
	C195.645767,459.000000 111.291542,459.000000 26.468658,459.000000 
z"/>
<path fill="#FEFEFE" opacity="1.000000" stroke="none" 
	d="
M116.949722,1.846362 
	C102.212875,3.246061 88.750595,7.890749 77.619560,17.955591 
	C63.566616,30.662474 56.608582,46.662392 56.260036,65.569672 
	C56.226719,67.377121 56.255589,69.185715 56.255589,71.226433 
	C45.518486,73.040176 35.836205,76.669022 27.311792,83.050713 
	C14.286965,92.801582 5.893642,105.503998 2.688998,121.541122 
	C2.532141,122.326080 2.049890,123.046005 1.359581,123.898109 
	C1.000000,83.075180 1.000000,42.150356 1.000000,1.000000 
	C39.353931,1.000000 77.708305,1.000000 116.528702,1.212180 
	C116.994713,1.424360 116.949722,1.846362 116.949722,1.846362 
z"/>
<path fill="#FDFDFD" opacity="1.000000" stroke="none" 
	d="
M287.468658,459.000000 
	C289.793427,457.824707 292.729187,456.902466 295.353210,455.426025 
	C302.791077,451.241058 306.340271,444.687317 306.342407,436.187012 
	C306.347229,417.055359 306.344147,397.923737 306.344269,378.792084 
	C306.344269,377.027008 306.344299,375.261902 306.344299,372.324951 
	C316.243683,380.229126 325.150177,387.288666 333.996246,394.423157 
	C339.308014,398.707214 344.498932,403.053619 351.861359,403.297577 
	C362.585266,403.652924 370.659454,398.156006 374.147705,387.909698 
	C374.465607,386.975952 374.918335,386.088043 375.654236,385.089417 
	C376.000000,409.600281 376.000000,434.200562 376.000000,459.000000 
	C346.646088,459.000000 317.291687,459.000000 287.468658,459.000000 
z"/>
<path fill="#FBFBFB" opacity="1.000000" stroke="none" 
	d="
M376.000000,59.531342 
	C375.241394,57.239643 374.401093,54.498779 373.736786,51.715904 
	C367.229980,24.457840 346.834320,6.204369 318.805115,2.583294 
	C317.490356,2.413441 316.184998,2.170622 314.461914,1.684021 
	C314.048553,1.406258 314.000000,1.000000 314.000000,1.000000 
	C334.591675,1.000000 355.183319,1.000000 376.000000,1.000000 
	C376.000000,20.353647 376.000000,39.708164 376.000000,59.531342 
z"/>
<path fill="#7F7F7F" opacity="1.000000" stroke="none" 
	d="
M376.000000,383.531342 
	C375.667603,382.652130 375.044739,381.304382 375.044189,379.956360 
	C374.999512,274.940918 375.003082,169.925446 375.014557,64.909981 
	C375.014648,64.086876 375.173004,63.263786 375.628723,62.220345 
	C376.000000,169.020889 376.000000,276.041779 376.000000,383.531342 
z"/>
<path fill="#BFBFBF" opacity="1.000000" stroke="none" 
	d="
M313.531342,1.000000 
	C314.000000,1.000000 314.048553,1.406258 314.052795,1.610788 
	C312.232422,1.876001 310.407806,1.989327 308.583221,1.989751 
	C245.015579,2.004542 181.447937,2.008694 117.415009,1.930360 
	C116.949722,1.846362 116.994713,1.424360 116.997360,1.212180 
	C182.354233,1.000000 247.708450,1.000000 313.531342,1.000000 
z"/>
<path fill="#F9F9F9" opacity="1.000000" stroke="none" 
	d="
M0.999995,442.470459 
	C2.878505,444.989380 4.213295,448.607574 6.767193,450.815857 
	C10.301818,453.872101 14.753817,455.867371 18.906475,458.658508 
	C13.076681,459.000000 7.153363,459.000000 1.000000,459.000000 
	C1.000000,453.649139 1.000000,448.295044 0.999995,442.470459 
z"/>
<path fill="#FEFEFE" opacity="1.000000" stroke="none" 
	d="
M54.825775,380.794861 
	C51.920120,383.283051 49.277134,385.531006 45.885906,388.415375 
	C45.651661,386.367310 45.368359,385.044861 45.368023,383.722382 
	C45.347069,300.908020 45.330124,218.093628 45.369965,135.279297 
	C45.375874,123.004082 53.451603,115.057404 65.740501,115.052643 
	C124.393723,115.029930 183.046967,115.031822 241.700195,115.050636 
	C254.769669,115.054825 262.436584,122.930191 262.446808,136.384430 
	C262.475983,174.708954 262.457092,213.033524 262.457092,251.358078 
	C262.457092,294.848114 262.457092,338.338165 262.457092,381.828217 
	C262.457092,383.738647 262.457092,385.649078 262.457092,388.800323 
	C253.462616,381.284515 245.486877,374.657990 237.552261,367.982544 
	C214.314835,348.432922 191.142807,328.805176 167.839157,309.334900 
	C159.882401,302.687012 148.284378,302.594788 140.259399,309.231781 
	C121.577095,324.682739 103.091049,340.370911 84.514442,355.949829 
	C74.717705,364.165680 64.897858,372.353943 54.825775,380.794861 
z"/>
<path fill="#FBFBFB" opacity="1.000000" stroke="none" 
	d="
M166.999908,70.838234 
	C144.691498,70.838234 122.883095,70.838234 101.187782,70.838234 
	C97.359505,59.054073 107.345955,46.607529 118.563980,46.182190 
	C119.729019,46.138016 120.896820,46.162415 122.063339,46.162399 
	C184.559677,46.161686 247.056030,46.160294 309.552368,46.162926 
	C323.159393,46.163502 330.955261,53.845016 330.957489,67.365860 
	C330.971954,154.860733 330.964966,242.355621 330.964996,329.850494 
	C330.964996,331.153748 330.964996,332.457001 330.964996,335.091156 
	C325.425293,330.774231 320.981262,326.611908 315.892303,323.506317 
	C307.899750,318.628906 306.017822,312.092102 306.097473,302.902100 
	C306.579773,247.242859 305.905457,191.572723 306.502411,135.915726 
	C306.851349,103.385292 283.835968,75.492981 250.479263,71.121124 
	C247.850601,70.776611 245.157913,70.851074 242.494888,70.849121 
	C217.496582,70.830780 192.498245,70.838234 166.999908,70.838234 
z"/>
</svg>