<?xml version="1.0" standalone="no"?>
<!DOCTYPE svg PUBLIC "-//W3C//DTD SVG 20010904//EN"
 "http://www.w3.org/TR/2001/REC-SVG-20010904/DTD/svg10.dtd">
<svg version="1.0" xmlns="http://www.w3.org/2000/svg"
 width="465.000000pt" height="466.000000pt" viewBox="0 0 465.000000 466.000000"
 preserveAspectRatio="xMidYMid meet">

<g transform="translate(0.000000,466.000000) scale(0.100000,-0.100000)"
fill="#000000" stroke="none">
<path d="M942 4630 c-46 -21 -88 -61 -105 -100 -6 -14 -13 -65 -16 -115 l-6
-90 -130 -6 c-179 -8 -275 -42 -412 -143 -121 -89 -216 -243 -253 -411 -19
-87 -20 -132 -20 -1590 0 -1624 -2 -1570 54 -1717 74 -198 234 -347 451 -420
l70 -23 1715 -3 c1934 -3 1798 -8 1970 75 81 39 108 59 181 133 102 102 156
200 189 345 20 89 20 105 18 1630 -3 1736 4 1573 -84 1754 -37 74 -62 110
-118 166 -139 138 -271 195 -481 204 l-130 6 -5 97 c-5 87 -8 100 -35 139 -85
120 -270 115 -342 -9 -23 -39 -29 -62 -33 -137 l-5 -90 -1090 0 -1090 0 -5 96
c-6 119 -30 162 -111 203 -63 31 -117 33 -177 6z m3124 -747 c64 -34 97 -67
129 -125 25 -45 30 -67 33 -145 l4 -93 -1906 0 -1906 0 0 63 c0 160 65 264
195 309 47 16 155 17 1730 15 l1680 -2 41 -22z m164 -1996 c0 -1369 5 -1281
-76 -1367 -25 -27 -66 -57 -94 -69 l-49 -21 -1698 2 -1698 3 -40 22 c-50 27
-96 75 -126 133 l-24 45 -3 1220 c-1 671 0 1225 2 1232 4 11 377 13 1906 13
l1900 0 0 -1213z"/>
</g>
</svg>
